<?xml version="1.0" standalone="no"?><!DOCTYPE svg PUBLIC "-//W3C//DTD SVG 1.1//EN" "http://www.w3.org/Graphics/SVG/1.1/DTD/svg11.dtd"><svg t="1617070599761" class="icon" viewBox="0 0 1024 1024" version="1.1" xmlns="http://www.w3.org/2000/svg" p-id="29271" width="128" height="128" xmlns:xlink="http://www.w3.org/1999/xlink"><defs><style type="text/css"></style></defs><path d="M554.422857 226.742857c-21.942857 4.388571-20.48 20.48-20.48 20.48-4.388571 20.48 19.017143 24.868571 19.017143 24.868572 24.868571-1.462857 23.405714-23.405714 23.405714-23.405715-4.388571-24.868571-21.942857-21.942857-21.942857-21.942857z" fill="#437DFF" p-id="29272"></path><path d="M889.417143 178.468571C807.497143 39.497143 631.954286 7.314286 624.64 5.851429h-1.462857C406.674286-20.48 292.571429 51.2 235.52 117.028571 171.154286 188.708571 160.914286 266.24 160.914286 270.628571c-4.388571 26.331429-5.851429 71.68-7.314286 89.234286h-1.462857l1.462857 21.942857c5.851429 133.12-39.497143 203.337143-39.497143 204.8l-1.462857 1.462857c-21.942857 39.497143-27.794286 73.142857-17.554286 100.937143 11.702857 29.257143 36.571429 38.034286 39.497143 38.034286h2.925714l52.662858 2.925714c2.925714 122.88 43.885714 163.84 48.274285 168.228572 26.331429 26.331429 70.217143 24.868571 109.714286 21.942857 21.942857-1.462857 51.2-2.925714 59.977143 4.388571 0 2.925714 0 7.314286-1.462857 11.702857-2.925714 13.165714-2.925714 20.48-4.388572 26.331429-1.462857 8.777143-1.462857 8.777143-4.388571 19.017143l-10.24 42.422857h478.354286l-7.314286-26.331429c-29.257143-100.937143-33.645714-285.257143 42.422857-500.297142 42.422857-125.805714 38.034286-232.594286-11.702857-318.902858z m-171.154286 46.811429s-57.051429-4.388571-78.994286 5.851429c0 0-42.422857 26.331429-8.777142 77.531428 0 0 26.331429 23.405714 81.92 0 0 0-4.388571 8.777143-33.645715 16.091429 0 0-13.165714 13.165714 24.868572 32.182857 0 0-30.72-10.24-38.034286-10.24 0 0-14.628571 0-14.628571 32.182857 0-14.628571-4.388571-64.365714-49.737143-61.44 0 0-68.754286 0-62.902857 81.92 0 0-1.462857 78.994286 68.754285 80.457143 0 0 24.868571 11.702857 23.405715-23.405714 0 0 7.314286-49.737143 10.24 8.777142 0 0 17.554286-5.851429 19.017142-32.182857 0 0 4.388571 4.388571 1.462858 23.405715h20.48s7.314286 2.925714-19.017143 4.388571c0 0-21.942857 19.017143 8.777143 14.628571 0 0-30.72 13.165714 5.851428 19.017143 0 0-26.331429 0-39.497143-1.462857 0 0-51.2 0-67.291428-5.851428 0 5.851429-73.142857-48.274286-38.034286-136.045715 0 0-2.925714-43.885714-54.125714-33.645714 0 0-40.96 2.925714-43.885715 57.051429v-29.257143s-2.925714-11.702857-35.108571 5.851428c0 0 11.702857-10.24 24.868571-16.091428 0 0 21.942857-19.017143-23.405714-20.48 0 0-4.388571-4.388571 42.422857-1.462857 0 0 36.571429 2.925714 32.182857-27.794286 0 0 5.851429-42.422857-73.142857-8.777143l20.48-14.628571s16.091429-13.165714-39.497143-13.165715l35.108572-5.851428s16.091429-7.314286-10.24-29.257143c0 0 27.794286 17.554286 38.034286 27.794286 0 0 23.405714 7.314286 32.182857 5.851428 0 0 24.868571-33.645714-13.165715-49.737143 0 0-16.091429-14.628571-42.422857-10.24 0 0 1.462857-2.925714 24.868572-1.462857 0 0 16.091429-2.925714 10.24-14.628571 0 0-20.48-20.48-19.017143-32.182857 0 0 21.942857 43.885714 29.257143-8.777143 0 0 1.462857 42.422857 10.24 49.737143 0 0 17.554286 30.72 52.662857 24.868571 0 0 20.48-2.925714 16.091428-33.645714 0 0-5.851429-14.628571-20.48-35.108572 0 0 40.96 49.737143 29.257143-14.628571 0 0 4.388571-2.925714 4.388572 0 0 20.48 4.388571 38.034286 26.331428 13.165714l2.925715-2.925714c0-1.462857-1.462857 0-2.925715 0-8.777143 11.702857-38.034286 51.2-1.462857 77.531428 0 0 32.182857 26.331429 78.994286-1.462857 0 0 16.091429-8.777143 23.405714-48.274285l-4.388571 39.497142s4.388571 13.165714 46.811428 5.851429c0 0-64.365714 10.24-11.702857 20.48z" fill="#437DFF" p-id="29273"></path></svg>